<svg version="1.1" xmlns="http://www.w3.org/2000/svg" xmlns:xlink="http://www.w3.org/1999/xlink" width="122.49892" height="78.22422" viewBox="0,0,122.49892,78.22422"><g transform="translate(-178.46428,-139.30335)"><g data-paper-data="{&quot;isPaintingLayer&quot;:true}" fill-rule="nonzero" stroke-linecap="butt" stroke-linejoin="miter" stroke-miterlimit="10" stroke-dasharray="" stroke-dashoffset="0" style="mix-blend-mode: normal"><path d="M300.9632,173.18757v4.84c0,2.87 -0.5,6.95 -1.57,12.84c-0.44,2.74 -1.28,5.56 -2.49,8.39c-0.02,0.04 -0.04,0.07 -0.05,0.11c-2.15,4.85 -5.69,9.08 -10.53,12.57c-5.16,3.71 -10.5,5.59 -15.89,5.59c-2.18,0 -4.26,-0.34 -6.21,-1c-6.91,-2.23 -12.37,-6.47 -16.22,-12.6c-0.83,-1.35 -1.65,-3.02 -2.67,-5.46c-0.02,-0.06 -0.04,-0.11 -0.07,-0.17c-1.26,-3.16 -1.93,-5.69 -2.11,-7.97c-0.03,-0.39 -0.14,-1.33 -0.5,-3.17c-0.13,-0.69 -0.2,-1.39 -0.2,-2.09v-4.28c-0.44,-1.69 -0.48,-3.5 -0.05,-5.29c0.16,-0.69 0.39,-1.36 0.67,-1.98c0,-1.22 0.21,-2.44 0.61,-3.6c0.11,-0.5 0.26,-0.99 0.44,-1.48c0.01,-0.01 0.19,-0.52 0.44,-1.93c0.3,-1.73 0.86,-3.96 1.7,-6.77c0.01,-0.03 0.02,-0.07 0.03,-0.1c1.63,-5.24 4.92,-10.21 10.06,-15.19c0.04,-0.04 0.07,-0.07 0.11,-0.1c2.6,-2.46 5.6,-4.02 8.92,-4.66c0.6,-0.11 1.21,-0.17 1.83,-0.19c0.38,-0.01 1.39,-0.07 3.04,-0.16c0.06,0 0.12,-0.01 0.18,-0.01c4.87,-0.2 9.48,0.84 13.75,3.07c4.93,2.52 8.83,6.31 11.6,11.27c1.31,2.35 2.43,5.2 3.43,8.74c1.17,4.01 1.75,7.54 1.75,10.78z" fill="#47cc00" stroke="none" stroke-width="1"/><path d="M290.24294,177.74583c0,2.17 -0.471,5.836 -1.408,10.995c-0.293,1.877 -0.879,3.842 -1.76,5.894c-1.35,3.05 -3.65,5.748 -6.904,8.093c-3.255,2.345 -6.407,3.518 -9.456,3.518c-0.997,0 -1.906,-0.146 -2.727,-0.439c-4.457,-1.407 -7.916,-4.075 -10.379,-8.005c-0.471,-0.761 -1.086,-2.052 -1.848,-3.87c-0.821,-2.052 -1.275,-3.635 -1.363,-4.75c-0.088,-1.113 -0.308,-2.579 -0.66,-4.397v-6.51c0.234,-0.116 0.117,-0.292 -0.352,-0.527h0.528c0,-0.293 0.116,-0.85 0.352,-1.671c0.233,-0.821 0.352,-1.437 0.352,-1.848c0,-0.352 -0.088,-0.674 -0.264,-0.968c0.233,0 0.439,-0.088 0.615,-0.264c-0.059,-0.117 -0.206,-0.176 -0.439,-0.176c0.058,-0.058 0.161,-0.146 0.308,-0.264c0.146,-0.117 0.249,-0.205 0.309,-0.264c-0.06,-0.059 -0.132,-0.103 -0.221,-0.133c-0.088,-0.028 -0.162,-0.072 -0.22,-0.132c0.353,-0.938 0.674,-2.228 0.968,-3.87c0.233,-1.348 0.704,-3.195 1.407,-5.541c1.056,-3.4 3.46,-6.919 7.213,-10.556c1.056,-0.996 2.199,-1.612 3.431,-1.847c0.176,0 1.319,-0.059 3.431,-0.177c2.932,-0.116 5.687,0.499 8.268,1.848c2.992,1.525 5.336,3.812 7.037,6.861c0.881,1.583 1.701,3.724 2.463,6.421c0.881,2.99 1.32,5.571 1.32,7.74v4.839zM284.43795,167.98283c-0.35,-0.82 -0.76,-1.876 -1.227,-3.167c-0.586,-2.639 -2.325,-5.071 -5.217,-7.301c-2.893,-2.228 -5.566,-3.224 -8.021,-2.99c-1.11,0.118 -2.981,1.966 -5.612,5.542c-1.286,1.701 -2.571,5.102 -3.856,10.203c-1.169,4.75 -1.725,8.415 -1.665,10.995c0.116,3.284 0.292,5.571 0.526,6.86c0.408,2.405 1.285,4.604 2.629,6.598c1.286,1.759 2.28,2.902 2.981,3.431c2.629,1.877 5.112,2.814 7.451,2.814c0.525,0 1.022,-0.058 1.49,-0.176c1.11,-0.176 2.424,-0.908 3.944,-2.199c1.286,-1.173 2.25,-2.257 2.894,-3.255c0.876,-1.465 1.695,-3.664 2.455,-6.597c1.168,-4.28 1.754,-8.825 1.754,-13.634c0.002,-2.579 -0.174,-4.954 -0.526,-7.124z" fill="#ffffff" stroke="#e3ff3e" stroke-width="0.5"/><path d="M240.47928,193.62726c-0.01,0.15 -0.03,0.3 -0.06,0.45c-0.29,2.04 -1.07,3.82 -2.4,6.39c-2.72,5.41 -7.08,9.65 -12.96,12.6c-4.45,2.23 -9.01,3.44 -13.56,3.62c-0.62,0.02 -1.16,0.03 -1.7,0.03c-14.81,0 -22.99,-6.97 -27.24,-12.82c-0.77,-1.05 -1.33,-2.22 -1.68,-3.45c-1.64,-3.49 -2.37,-6.96 -2.17,-10.34c0.08,-1.42 0.33,-3.02 0.78,-4.91c0.02,-1.42 0.32,-2.82 0.88,-4.13c0.6,-1.41 1.25,-2.75 1.94,-4.03c-1,-1.26 -1.82,-2.63 -2.45,-4.1c-0.03,-0.07 -0.06,-0.14 -0.09,-0.21c-1.74,-4.27 -1.74,-8.78 0,-13.05c0.03,-0.08 0.07,-0.16 0.1,-0.23c2.07,-4.75 5.68,-8.78 10.74,-11.96c4.86,-3.06 9.68,-4.67 14.32,-4.77h5.08c5.13,0 9.78,1.07 13.82,3.19c5.76,3 9.68,7.81 11.31,13.91c0.67,2.41 1.29,5.58 0.32,8.96c-0.18,0.68 -0.4,1.34 -0.65,1.99c5.06,5.4 6.22,10.82 6.18,14.77c0.03,1.3 -0.02,3.48 -0.51,8.09z" fill="#51cc00" stroke="none" stroke-width="1"/><path d="M229.98028,185.60826c0.057,1.234 -0.088,3.525 -0.439,6.873c-0.061,0.412 -0.5,1.409 -1.32,2.995c-1.643,3.29 -4.34,5.874 -8.092,7.755c-3.05,1.527 -6.069,2.35 -9.061,2.467c-8.854,0.295 -15.393,-2.463 -19.615,-8.269c0,-0.176 -0.03,-0.38 -0.088,-0.616c-1.231,-2.227 -1.789,-4.25 -1.671,-6.068c0.058,-1.113 0.381,-2.727 0.968,-4.838c-0.06,-0.117 -0.118,-0.293 -0.176,-0.527c2.052,-4.809 4.631,-8.357 7.74,-10.645c-4.398,-1.523 -7.155,-3.576 -8.269,-6.156c-0.646,-1.584 -0.646,-3.167 0,-4.75c1.173,-2.697 3.343,-5.043 6.509,-7.037c3.167,-1.992 6.069,-3.02 8.709,-3.078c0.585,0 1.495,0 2.727,0c0.703,0 1.407,0 2.111,0c3.342,0 6.245,0.646 8.708,1.938c3.048,1.586 4.983,3.936 5.806,7.049c0.408,1.47 0.527,2.498 0.352,3.084c-0.822,2.996 -2.963,5.64 -6.422,7.931c0.704,0.294 1.641,0.705 2.814,1.233c0.881,0.236 2.053,0.734 3.52,1.498c3.576,2.936 5.306,5.989 5.189,9.161zM223.91428,191.71226c0.467,-2.756 0.701,-4.514 0.701,-5.277c0,-2.345 -0.791,-4.223 -2.369,-5.629c-2.339,-1.993 -6.196,-3.343 -11.574,-4.047c-0.41,-0.293 -0.907,-0.586 -1.491,-0.879c-1.053,-0.117 -1.727,-0.146 -2.018,-0.088c-2.34,0.293 -4.794,1.906 -7.365,4.838c-2.866,3.225 -4.298,6.451 -4.298,9.676c0,3.46 1.577,6.188 4.735,8.18c2.748,1.76 5.963,2.639 9.646,2.639c1.111,0 2.164,-0.088 3.157,-0.264c1.987,-0.176 4.15,-1.172 6.489,-2.99c2.574,-1.994 4.035,-4.048 4.387,-6.159zM218.36928,161.30226c-0.646,-0.885 -1.847,-1.697 -3.606,-2.436c-1.759,-0.736 -3.254,-1.076 -4.485,-1.019c-0.998,0.06 -2.287,0.206 -3.87,0.442c-0.471,0.118 -1.643,0.473 -3.519,1.062c-1.291,0.473 -2.728,1.389 -4.311,2.744c-1.877,1.595 -2.757,2.953 -2.639,4.074c0.352,3.305 3.636,5.017 9.852,5.135c2.814,-0.059 5.102,-0.354 6.861,-0.885c0.937,-0.236 2.08,-0.59 3.43,-1.062c2.169,-1.416 3.255,-3.157 3.255,-5.225c0,-1.001 -0.324,-1.946 -0.968,-2.83z" fill="#ffffff" stroke="none" stroke-width="1"/></g></g></svg>