<svg version="1.1" xmlns="http://www.w3.org/2000/svg" xmlns:xlink="http://www.w3.org/1999/xlink" width="119.80249" height="79.61665" viewBox="0,0,119.80249,79.61665"><g transform="translate(-181.16071,-139.30335)"><g data-paper-data="{&quot;isPaintingLayer&quot;:true}" fill-rule="nonzero" stroke-linecap="butt" stroke-linejoin="miter" stroke-miterlimit="10" stroke-dasharray="" stroke-dashoffset="0" style="mix-blend-mode: normal"><path d="M300.9632,173.18757v4.84c0,2.87 -0.5,6.95 -1.57,12.84c-0.44,2.74 -1.28,5.56 -2.49,8.39c-0.02,0.04 -0.04,0.07 -0.05,0.11c-2.15,4.85 -5.69,9.08 -10.53,12.57c-5.16,3.71 -10.5,5.59 -15.89,5.59c-2.18,0 -4.26,-0.34 -6.21,-1c-6.91,-2.23 -12.37,-6.47 -16.22,-12.6c-0.83,-1.35 -1.65,-3.02 -2.67,-5.46c-0.02,-0.06 -0.04,-0.11 -0.07,-0.17c-1.26,-3.16 -1.93,-5.69 -2.11,-7.97c-0.03,-0.39 -0.14,-1.33 -0.5,-3.17c-0.13,-0.69 -0.2,-1.39 -0.2,-2.09v-4.28c-0.44,-1.69 -0.48,-3.5 -0.05,-5.29c0.16,-0.69 0.39,-1.36 0.67,-1.98c0,-1.22 0.21,-2.44 0.61,-3.6c0.11,-0.5 0.26,-0.99 0.44,-1.48c0.01,-0.01 0.19,-0.52 0.44,-1.93c0.3,-1.73 0.86,-3.96 1.7,-6.77c0.01,-0.03 0.02,-0.07 0.03,-0.1c1.63,-5.24 4.92,-10.21 10.06,-15.19c0.04,-0.04 0.07,-0.07 0.11,-0.1c2.6,-2.46 5.6,-4.02 8.92,-4.66c0.6,-0.11 1.21,-0.17 1.83,-0.19c0.38,-0.01 1.39,-0.07 3.04,-0.16c0.06,0 0.12,-0.01 0.18,-0.01c4.87,-0.2 9.48,0.84 13.75,3.07c4.93,2.52 8.83,6.31 11.6,11.27c1.31,2.35 2.43,5.2 3.43,8.74c1.17,4.01 1.75,7.54 1.75,10.78z" fill="#47cc00" stroke="none" stroke-width="1"/><path d="M290.24294,177.74583c0,2.17 -0.471,5.836 -1.408,10.995c-0.293,1.877 -0.879,3.842 -1.76,5.894c-1.35,3.05 -3.65,5.748 -6.904,8.093c-3.255,2.345 -6.407,3.518 -9.456,3.518c-0.997,0 -1.906,-0.146 -2.727,-0.439c-4.457,-1.407 -7.916,-4.075 -10.379,-8.005c-0.471,-0.761 -1.086,-2.052 -1.848,-3.87c-0.821,-2.052 -1.275,-3.635 -1.363,-4.75c-0.088,-1.113 -0.308,-2.579 -0.66,-4.397v-6.51c0.234,-0.116 0.117,-0.292 -0.352,-0.527h0.528c0,-0.293 0.116,-0.85 0.352,-1.671c0.233,-0.821 0.352,-1.437 0.352,-1.848c0,-0.352 -0.088,-0.674 -0.264,-0.968c0.233,0 0.439,-0.088 0.615,-0.264c-0.059,-0.117 -0.206,-0.176 -0.439,-0.176c0.058,-0.058 0.161,-0.146 0.308,-0.264c0.146,-0.117 0.249,-0.205 0.309,-0.264c-0.06,-0.059 -0.132,-0.103 -0.221,-0.133c-0.088,-0.028 -0.162,-0.072 -0.22,-0.132c0.353,-0.938 0.674,-2.228 0.968,-3.87c0.233,-1.348 0.704,-3.195 1.407,-5.541c1.056,-3.4 3.46,-6.919 7.213,-10.556c1.056,-0.996 2.199,-1.612 3.431,-1.847c0.176,0 1.319,-0.059 3.431,-0.177c2.932,-0.116 5.687,0.499 8.268,1.848c2.992,1.525 5.336,3.812 7.037,6.861c0.881,1.583 1.701,3.724 2.463,6.421c0.881,2.99 1.32,5.571 1.32,7.74v4.839zM284.43795,167.98283c-0.35,-0.82 -0.76,-1.876 -1.227,-3.167c-0.586,-2.639 -2.325,-5.071 -5.217,-7.301c-2.893,-2.228 -5.566,-3.224 -8.021,-2.99c-1.11,0.118 -2.981,1.966 -5.612,5.542c-1.286,1.701 -2.571,5.102 -3.856,10.203c-1.169,4.75 -1.725,8.415 -1.665,10.995c0.116,3.284 0.292,5.571 0.526,6.86c0.408,2.405 1.285,4.604 2.629,6.598c1.286,1.759 2.28,2.902 2.981,3.431c2.629,1.877 5.112,2.814 7.451,2.814c0.525,0 1.022,-0.058 1.49,-0.176c1.11,-0.176 2.424,-0.908 3.944,-2.199c1.286,-1.173 2.25,-2.257 2.894,-3.255c0.876,-1.465 1.695,-3.664 2.455,-6.597c1.168,-4.28 1.754,-8.825 1.754,-13.634c0.002,-2.579 -0.174,-4.954 -0.526,-7.124z" fill="#ffffff" stroke="#e3ff3e" stroke-width="0.5"/><path d="M238.52071,204.07c-1.64,4.61 -5.25,8.32 -11.05,11.38c-0.05,0.02 -0.1,0.05 -0.14,0.07c-4.43,2.26 -9.07,3.4 -13.79,3.4c-6.53,0 -12.76,-2.2 -18.5,-6.53c-0.04,-0.03 -0.08,-0.06 -0.12,-0.09c-1.36,-1.06 -2.62,-2.39 -6.08,-7.11c-0.32,-0.42 -0.6,-0.87 -0.85,-1.34l-0.97,-1.84c-0.67,-0.88 -1.3,-1.9 -1.94,-3.1c-0.34,-0.64 -0.61,-1.3 -0.81,-1.99c-0.6,-1.98 -1.34,-4.82 -2.27,-8.67c-0.05,-0.2 -0.09,-0.41 -0.13,-0.61c-0.48,-2.61 -0.71,-5.62 -0.71,-9.19c0,-4.9 0.07,-5.88 0.2,-6.83c0.04,-0.23 0.08,-0.47 0.13,-0.7c0.29,-1.39 0.87,-3.44 3.16,-8.92c0.27,-0.66 0.61,-1.29 1.01,-1.89c0.29,-0.43 0.69,-1.04 1.2,-1.83c2.56,-4.55 6.36,-8.29 11.28,-11.1c4.26,-2.4 8.68,-3.78 13.2,-4.14c0.29,-0.03 0.59,-0.04 0.88,-0.04c0.62,0 1.13,0.02 5.17,0.4c0.38,0.04 0.75,0.09 1.12,0.17c0.46,0.09 1.05,0.23 4.44,1.09c0.04,0.01 0.08,0.02 0.12,0.03c3.01,0.81 5.71,2.55 8.01,5.18c3.32,3.77 4.01,7.53 4.01,10.02c0,3.02 -1.04,5.95 -2.94,8.29c2.53,2.4 4.56,5.1 6.03,8.04c0.44,0.77 0.94,1.74 1.56,3.04c0.23,0.49 0.43,1 0.59,1.52c0.52,1.71 0.81,3.62 0.91,6.01v0.13c0.04,1.3 0.07,2.24 0.08,2.82c0.3,3.58 -0.56,7.93 -2.8,14.33z" fill="#34cc00" stroke="none" stroke-width="1"/><path d="M230.33871,190.417c0.234,1.818 -0.498,5.16 -2.198,10.027c-0.646,1.818 -2.581,3.576 -5.806,5.277c-2.874,1.465 -5.806,2.199 -8.796,2.199c-4.105,0 -8.064,-1.438 -11.875,-4.311c-0.528,-0.41 -1.848,-2.051 -3.958,-4.926l-1.496,-2.814c-0.41,-0.41 -0.879,-1.113 -1.407,-2.111c-0.527,-1.759 -1.231,-4.455 -2.11,-8.092c-0.353,-1.936 -0.528,-4.34 -0.528,-7.213c0,-3.107 0.029,-4.867 0.088,-5.277c0.233,-1.113 1.085,-3.432 2.551,-6.949c0.353,-0.527 0.85,-1.289 1.495,-2.287c1.584,-2.932 4.017,-5.336 7.301,-7.213c2.815,-1.584 5.688,-2.492 8.62,-2.727c0.293,0 1.672,0.118 4.135,0.352c0.293,0.059 1.583,0.383 3.87,0.968c0.88,0.235 1.744,0.835 2.595,1.804c0.85,0.967 1.275,1.891 1.275,2.77c0,0.528 -0.176,0.998 -0.527,1.408c-0.527,0.586 -1.291,0.91 -2.287,0.967c-0.938,0.119 -1.672,0 -2.199,-0.352c-0.294,-0.645 -1.086,-1.465 -2.375,-2.463c-1.467,-0.586 -2.902,-0.879 -4.31,-0.879c-4.165,0 -7.8,2.346 -10.907,7.037c-2.757,4.221 -3.93,8.092 -3.519,11.609c3.928,-3.811 8.884,-5.717 14.865,-5.717c0.938,0 1.905,0.059 2.902,0.176c0.058,0 0.234,0.088 0.528,0.264c2.228,0 4.603,1.057 7.125,3.167c2.287,1.878 3.987,3.988 5.102,6.333c0.293,0.471 0.732,1.319 1.319,2.551c0.233,0.764 0.381,1.848 0.439,3.255c0.057,1.935 0.088,2.991 0.088,3.167zM224.97271,190.464c0.176,-3.882 -0.675,-6.971 -2.551,-9.266c-2.815,-3.588 -6.363,-5.383 -10.644,-5.383c-3.988,0 -8.151,2.501 -12.49,7.501c-0.235,0.118 -0.558,0.294 -0.968,0.529c1.231,6.767 3.107,11.59 5.63,14.472c2.814,3.178 5.951,4.678 9.411,4.502c1.349,0.176 2.888,-0.016 4.618,-0.574c1.729,-0.557 3.005,-1.338 3.827,-2.338c1.936,-2.295 2.992,-5.441 3.167,-9.443z" fill="#ffffff" stroke="none" stroke-width="1"/></g></g></svg>