<svg version="1.1" xmlns="http://www.w3.org/2000/svg" xmlns:xlink="http://www.w3.org/1999/xlink" width="121.65089" height="78.27696" viewBox="0,0,121.65089,78.27696"><g transform="translate(-179.31232,-139.30335)"><g data-paper-data="{&quot;isPaintingLayer&quot;:true}" fill-rule="nonzero" stroke-linecap="butt" stroke-linejoin="miter" stroke-miterlimit="10" stroke-dasharray="" stroke-dashoffset="0" style="mix-blend-mode: normal"><path d="M300.96321,173.18757v4.84c0,2.87 -0.5,6.95 -1.57,12.84c-0.44,2.74 -1.28,5.56 -2.49,8.39c-0.02,0.04 -0.04,0.07 -0.05,0.11c-2.15,4.85 -5.69,9.08 -10.53,12.57c-5.16,3.71 -10.5,5.59 -15.89,5.59c-2.18,0 -4.26,-0.34 -6.21,-1c-6.91,-2.23 -12.37,-6.47 -16.22,-12.6c-0.83,-1.35 -1.65,-3.02 -2.67,-5.46c-0.02,-0.06 -0.04,-0.11 -0.07,-0.17c-1.26,-3.16 -1.93,-5.69 -2.11,-7.97c-0.03,-0.39 -0.14,-1.33 -0.5,-3.17c-0.13,-0.69 -0.2,-1.39 -0.2,-2.09v-4.28c-0.44,-1.69 -0.48,-3.5 -0.05,-5.29c0.16,-0.69 0.39,-1.36 0.67,-1.98c0,-1.22 0.21,-2.44 0.61,-3.6c0.11,-0.5 0.26,-0.99 0.44,-1.48c0.01,-0.01 0.19,-0.52 0.44,-1.93c0.3,-1.73 0.86,-3.96 1.7,-6.77c0.01,-0.03 0.02,-0.07 0.03,-0.1c1.63,-5.24 4.92,-10.21 10.06,-15.19c0.04,-0.04 0.07,-0.07 0.11,-0.1c2.6,-2.46 5.6,-4.02 8.92,-4.66c0.6,-0.11 1.21,-0.17 1.83,-0.19c0.38,-0.01 1.39,-0.07 3.04,-0.16c0.06,0 0.12,-0.01 0.18,-0.01c4.87,-0.2 9.48,0.84 13.75,3.07c4.93,2.52 8.83,6.31 11.6,11.27c1.31,2.35 2.43,5.2 3.43,8.74c1.17,4.01 1.75,7.54 1.75,10.78z" fill="#47cc00" stroke="none" stroke-width="1"/><path d="M290.24295,177.74583c0,2.17 -0.471,5.836 -1.408,10.995c-0.293,1.877 -0.879,3.842 -1.76,5.894c-1.35,3.05 -3.65,5.748 -6.904,8.093c-3.255,2.345 -6.407,3.518 -9.456,3.518c-0.997,0 -1.906,-0.146 -2.727,-0.439c-4.457,-1.407 -7.916,-4.075 -10.379,-8.005c-0.471,-0.761 -1.086,-2.052 -1.848,-3.87c-0.821,-2.052 -1.275,-3.635 -1.363,-4.75c-0.088,-1.113 -0.308,-2.579 -0.66,-4.397v-6.51c0.234,-0.116 0.117,-0.292 -0.352,-0.527h0.528c0,-0.293 0.116,-0.85 0.352,-1.671c0.233,-0.821 0.352,-1.437 0.352,-1.848c0,-0.352 -0.088,-0.674 -0.264,-0.968c0.233,0 0.439,-0.088 0.615,-0.264c-0.059,-0.117 -0.206,-0.176 -0.439,-0.176c0.058,-0.058 0.161,-0.146 0.308,-0.264c0.146,-0.117 0.249,-0.205 0.309,-0.264c-0.06,-0.059 -0.132,-0.103 -0.221,-0.133c-0.088,-0.028 -0.162,-0.072 -0.22,-0.132c0.353,-0.938 0.674,-2.228 0.968,-3.87c0.233,-1.348 0.704,-3.195 1.407,-5.541c1.056,-3.4 3.46,-6.919 7.213,-10.556c1.056,-0.996 2.199,-1.612 3.431,-1.847c0.176,0 1.319,-0.059 3.431,-0.177c2.932,-0.116 5.687,0.499 8.268,1.848c2.992,1.525 5.336,3.812 7.037,6.861c0.881,1.583 1.701,3.724 2.463,6.421c0.881,2.99 1.32,5.571 1.32,7.74v4.839zM284.43796,167.98283c-0.35,-0.82 -0.76,-1.876 -1.227,-3.167c-0.586,-2.639 -2.325,-5.071 -5.217,-7.301c-2.893,-2.228 -5.566,-3.224 -8.021,-2.99c-1.11,0.118 -2.981,1.966 -5.612,5.542c-1.286,1.701 -2.571,5.102 -3.856,10.203c-1.169,4.75 -1.725,8.415 -1.665,10.995c0.116,3.284 0.292,5.571 0.526,6.86c0.408,2.405 1.285,4.604 2.629,6.598c1.286,1.759 2.28,2.902 2.981,3.431c2.629,1.877 5.112,2.814 7.451,2.814c0.525,0 1.022,-0.058 1.49,-0.176c1.11,-0.176 2.424,-0.908 3.944,-2.199c1.286,-1.173 2.25,-2.257 2.894,-3.255c0.876,-1.465 1.695,-3.664 2.455,-6.597c1.168,-4.28 1.754,-8.825 1.754,-13.634c0.002,-2.579 -0.174,-4.954 -0.526,-7.124z" fill="#ffffff" stroke="#e3ff3e" stroke-width="0.5"/><path d="M241.86449,203.73031c0,5.14 -2.75,9.66 -7.35,12.09c-2.23,1.18 -4.83,1.76 -7.95,1.76c-1.31,0 -2.73,-0.1 -4.34,-0.3c-0.12,-0.01 -0.24,-0.03 -0.36,-0.05c-2.49,-0.39 -3.64,-0.43 -4.02,-0.43h-0.12c-0.16,0.02 -0.32,0.03 -0.48,0.03c-0.25,0.02 -0.61,0.06 -1.1,0.11c-1.3,0.17 -2.44,0.25 -3.49,0.25c-0.57,0 -1.76,0.03 -4.14,0.16h-0.12c-0.65,0.03 -1.22,0.04 -1.73,0.04c-1.35,0 -2.48,-0.09 -3.51,-0.28c-3.38,-0.58 -6.38,-2.33 -8.48,-4.98c-2.52,-3.16 -3.05,-6.32 -3.05,-8.42c0,-2.73 0.85,-5.33 2.39,-7.52c-1,-0.08 -1.98,-0.2 -2.94,-0.38c-5.91,-1.06 -8.98,-6.08 -10.14,-7.98c-1.49,-2.43 -1.98,-5.35 -1.36,-8.13c0.2,-0.92 0.52,-1.93 1.02,-3.24c0.59,-2.37 1.94,-4.44 3.78,-5.93c2.51,-3.43 6.46,-9.03 11.76,-16.69c1.28,-1.84 1.99,-2.98 2.37,-3.63c0.98,-1.77 2.36,-3.4 4.32,-5.13c2,-1.77 3.77,-2.92 5.58,-3.64c0.34,-0.14 0.69,-0.26 1.05,-0.36c2.54,-0.73 5.28,-0.65 7.91,0.23c0.24,0.07 0.47,0.16 0.7,0.25c0.42,0.07 0.85,0.16 1.26,0.27c2.76,0.75 5.16,2.24 6.94,4.31c2.6,3.04 3.15,6.67 3.35,10.14c0.02,0.33 0.03,0.67 0.02,1c-0.04,1.09 -0.05,3.24 0.08,7.32c0.02,0.37 0.04,0.78 0.06,1.22c7.03,1.48 10.68,7.32 10.68,13.1c0,1.27 -0.16,2.54 -0.5,3.9c-0.4,1.57 -1.13,3.04 -2.16,4.3c-1.14,1.39 -2.47,2.55 -3.95,3.47c4.36,1.91 8.02,6.25 8.02,13.14z" fill="#2acc00" stroke="none" stroke-width="1"/><path d="M229.36749,206.10031c-0.998,0.528 -2.933,0.616 -5.805,0.264c-2.991,-0.468 -5.221,-0.645 -6.686,-0.527c-0.235,0 -0.91,0.06 -2.023,0.176c-0.88,0.118 -1.613,0.176 -2.199,0.176c-1.055,0 -2.639,0.06 -4.749,0.176c-1.351,0.06 -2.287,0.032 -2.815,-0.082c-0.763,-0.11 -1.363,-0.442 -1.803,-0.995c-0.44,-0.553 -0.66,-1.076 -0.66,-1.573c0,-0.884 0.498,-1.616 1.495,-2.197c0.997,-0.579 2.023,-0.869 3.079,-0.869c0.469,0 0.88,0 1.231,0h5.365c0.353,0 0.85,-0.088 1.496,-0.267c0.116,-2.132 -0.119,-6.13 -0.704,-11.993c0,-0.948 -0.016,-1.94 -0.044,-2.978c-0.03,-1.036 -0.279,-1.88 -0.748,-2.531c-3.284,0.294 -6.948,0.792 -10.995,1.495c-3.226,0.587 -5.513,0.88 -6.86,0.88c-0.998,0 -1.966,-0.088 -2.903,-0.264c-0.703,-0.117 -1.613,-1.085 -2.727,-2.903c0.117,-0.527 0.44,-1.436 0.968,-2.727c0,-0.116 0,-0.204 0,-0.264c0.176,0 0.409,-0.117 0.704,-0.352c2.463,-3.283 6.86,-9.5 13.193,-18.647c1.231,-1.76 2.199,-3.255 2.903,-4.486c0.352,-0.645 1.025,-1.407 2.022,-2.287c0.997,-0.88 1.788,-1.437 2.375,-1.671c0.41,-0.117 0.88,-0.088 1.407,0.088c0.353,0.176 0.704,0.322 1.056,0.439c0.938,0.176 1.437,0.264 1.495,0.264c0.646,0.176 1.144,0.471 1.496,0.88c0.352,0.411 0.585,1.613 0.703,3.606c-0.059,1.818 -0.03,4.517 0.088,8.093c0.117,2.639 0.353,6.627 0.704,11.962c0.645,0.06 1.729,0 3.255,-0.176c1.759,-0.233 2.932,-0.352 3.519,-0.352c2.168,0 3.254,0.821 3.254,2.463c0,0.352 -0.059,0.763 -0.176,1.231c-1.056,1.29 -2.551,1.935 -4.485,1.935c-0.295,0 -0.748,0 -1.364,0c-0.615,0 -1.07,0 -1.363,0c-0.703,0 -1.319,0.089 -1.847,0.265c0,2.053 0.116,5.132 0.352,9.235c0.352,4.75 0.704,7.683 1.056,8.796c1.583,-0.058 3.928,-0.028 7.037,0.088c1.465,0.118 2.198,1.203 2.198,3.255c0,1.055 -0.498,1.847 -1.495,2.374zM213.71049,177.51431c-0.527,-4.867 -0.851,-10.145 -0.968,-15.833c-0.118,0 -0.206,-0.029 -0.264,-0.088c0.176,-0.176 0.264,-0.322 0.264,-0.44c0,-0.058 -0.088,-0.233 -0.264,-0.527c-0.118,-0.233 -0.118,-0.439 0,-0.616c0.176,-0.233 0.264,-0.527 0.264,-0.879c-0.821,0.821 -1.642,1.906 -2.463,3.254c-1.35,2.171 -2.141,3.431 -2.374,3.783c-2.229,2.933 -5.045,7.066 -8.444,12.402c-0.06,0.234 0,0.439 0.176,0.615c1.759,0 4.104,-0.205 7.037,-0.615c3.752,-0.587 6.098,-0.938 7.036,-1.056z" fill="#ffffff" stroke="none" stroke-width="1"/></g></g></svg>